<svg width="36" height="36" viewBox="0 0 36 36" fill="none" xmlns="http://www.w3.org/2000/svg">
<path d="M36 18C36 27.9411 27.9411 36 18 36C8.05887 36 0 27.9411 0 18C0 8.05887 8.05887 0 18 0C27.9411 0 36 8.05887 36 18Z" fill="#7F8FA4"/>
<path d="M15.3477 16.5977L12.2363 25H11.1523L8.10547 16.5977H9.20117L11.5273 23.2598C11.6016 23.4746 11.6582 23.7227 11.6973 24.0039H11.7207C11.752 23.7695 11.8164 23.5176 11.9141 23.248L14.2871 16.5977H15.3477ZM26.5156 16.5977L24.1426 25H22.9883L21.2598 18.8594C21.1855 18.5977 21.1406 18.3125 21.125 18.0039H21.1016C21.0781 18.293 21.0273 18.5742 20.9492 18.8477L19.209 25H18.0664L15.6055 16.5977H16.6895L18.4766 23.043C18.5508 23.3125 18.5977 23.5938 18.6172 23.8867H18.6465C18.666 23.6797 18.7266 23.3984 18.8281 23.043L20.6855 16.5977H21.6289L23.4102 23.0898C23.4727 23.3125 23.5195 23.5742 23.5508 23.875H23.5742C23.5898 23.6719 23.6426 23.4023 23.7324 23.0664L25.4492 16.5977H26.5156Z" fill="white"/>
</svg>
