<svg width="147" height="19" viewBox="0 0 147 19" fill="none" xmlns="http://www.w3.org/2000/svg">
<path d="M9.65625 0.9375V18H5.54297V0.9375H9.65625ZM14.7891 0.9375V4.11328H0.527344V0.9375H14.7891ZM19.5586 8.46094V18H15.6094V5.32031H19.3008L19.5586 8.46094ZM23.3086 5.22656L23.2383 8.89453C23.082 8.87891 22.8711 8.85938 22.6055 8.83594C22.3398 8.8125 22.1172 8.80078 21.9375 8.80078C21.4766 8.80078 21.0781 8.85547 20.7422 8.96484C20.4141 9.06641 20.1406 9.22266 19.9219 9.43359C19.7109 9.63672 19.5547 9.89453 19.4531 10.207C19.3594 10.5195 19.3164 10.8828 19.3242 11.2969L18.6094 10.8281C18.6094 9.97656 18.6914 9.20312 18.8555 8.50781C19.0273 7.80469 19.2695 7.19922 19.582 6.69141C19.8945 6.17578 20.2734 5.78125 20.7188 5.50781C21.1641 5.22656 21.6641 5.08594 22.2188 5.08594C22.4141 5.08594 22.6055 5.09766 22.793 5.12109C22.9883 5.14453 23.1602 5.17969 23.3086 5.22656ZM30.9023 14.8125V9.58594C30.9023 9.22656 30.8516 8.91797 30.75 8.66016C30.6484 8.40234 30.4883 8.20312 30.2695 8.0625C30.0508 7.91406 29.7578 7.83984 29.3906 7.83984C29.0938 7.83984 28.8398 7.89062 28.6289 7.99219C28.418 8.09375 28.2578 8.24609 28.1484 8.44922C28.0391 8.65234 27.9844 8.91016 27.9844 9.22266H24.0352C24.0352 8.63672 24.1641 8.09375 24.4219 7.59375C24.6875 7.08594 25.0625 6.64453 25.5469 6.26953C26.0391 5.89453 26.625 5.60547 27.3047 5.40234C27.9922 5.19141 28.7578 5.08594 29.6016 5.08594C30.6094 5.08594 31.5078 5.25391 32.2969 5.58984C33.0938 5.92578 33.7227 6.42969 34.1836 7.10156C34.6445 7.76562 34.875 8.60156 34.875 9.60938V14.8008C34.875 15.6289 34.9219 16.2578 35.0156 16.6875C35.1094 17.1094 35.2422 17.4805 35.4141 17.8008V18H31.4531C31.2656 17.6094 31.125 17.1328 31.0312 16.5703C30.9453 16 30.9023 15.4141 30.9023 14.8125ZM31.3828 10.2539L31.4062 12.3633H29.6602C29.293 12.3633 28.9805 12.4141 28.7227 12.5156C28.4727 12.6172 28.2695 12.7578 28.1133 12.9375C27.9648 13.1094 27.8555 13.3047 27.7852 13.5234C27.7227 13.7422 27.6914 13.9727 27.6914 14.2148C27.6914 14.4492 27.7461 14.6602 27.8555 14.8477C27.9727 15.0273 28.1289 15.168 28.3242 15.2695C28.5195 15.3711 28.7383 15.4219 28.9805 15.4219C29.418 15.4219 29.7891 15.3398 30.0938 15.1758C30.4062 15.0039 30.6445 14.7969 30.8086 14.5547C30.9727 14.3125 31.0547 14.0859 31.0547 13.875L31.9219 15.4922C31.7656 15.8047 31.5859 16.1211 31.3828 16.4414C31.1875 16.7617 30.9414 17.0586 30.6445 17.332C30.3555 17.5977 30 17.8164 29.5781 17.9883C29.1562 18.1523 28.6445 18.2344 28.043 18.2344C27.2617 18.2344 26.543 18.0742 25.8867 17.7539C25.2383 17.4336 24.7188 16.9883 24.3281 16.418C23.9375 15.8398 23.7422 15.1758 23.7422 14.4258C23.7422 13.7695 23.8594 13.1836 24.0938 12.668C24.3359 12.1523 24.6992 11.7148 25.1836 11.3555C25.668 10.9961 26.2852 10.7227 27.0352 10.5352C27.7852 10.3477 28.668 10.2539 29.6836 10.2539H31.3828ZM40.9453 8.02734V18H36.9961V5.32031H40.6992L40.9453 8.02734ZM40.4766 11.2266L39.5508 11.25C39.5508 10.2812 39.668 9.41797 39.9023 8.66016C40.1367 7.89453 40.4688 7.24609 40.8984 6.71484C41.3281 6.18359 41.8398 5.78125 42.4336 5.50781C43.0352 5.22656 43.7031 5.08594 44.4375 5.08594C45.0234 5.08594 45.5586 5.17188 46.043 5.34375C46.5352 5.51562 46.957 5.79297 47.3086 6.17578C47.668 6.55859 47.9414 7.06641 48.1289 7.69922C48.3242 8.32422 48.4219 9.09766 48.4219 10.0195V18H44.4492V10.0078C44.4492 9.5 44.3789 9.11328 44.2383 8.84766C44.0977 8.57422 43.8945 8.38672 43.6289 8.28516C43.3633 8.18359 43.0391 8.13281 42.6562 8.13281C42.25 8.13281 41.9062 8.21094 41.625 8.36719C41.3438 8.52344 41.1172 8.74219 40.9453 9.02344C40.7812 9.29688 40.6602 9.62109 40.582 9.99609C40.5117 10.3711 40.4766 10.7812 40.4766 11.2266ZM57.2578 14.4375C57.2578 14.2188 57.1836 14.0312 57.0352 13.875C56.8945 13.7109 56.6445 13.5625 56.2852 13.4297C55.9258 13.2891 55.4219 13.1484 54.7734 13.0078C54.1562 12.875 53.5742 12.6992 53.0273 12.4805C52.4883 12.2617 52.0156 11.9961 51.6094 11.6836C51.2031 11.3711 50.8828 11 50.6484 10.5703C50.4219 10.1406 50.3086 9.64844 50.3086 9.09375C50.3086 8.55469 50.4219 8.04688 50.6484 7.57031C50.8828 7.08594 51.2227 6.66016 51.668 6.29297C52.1211 5.91797 52.6719 5.625 53.3203 5.41406C53.9688 5.19531 54.707 5.08594 55.5352 5.08594C56.6758 5.08594 57.6602 5.26172 58.4883 5.61328C59.3164 5.95703 59.9531 6.44141 60.3984 7.06641C60.8516 7.68359 61.0781 8.39844 61.0781 9.21094H57.1289C57.1289 8.89062 57.0742 8.61719 56.9648 8.39062C56.8633 8.16406 56.6953 7.99219 56.4609 7.875C56.2266 7.75 55.9141 7.6875 55.5234 7.6875C55.25 7.6875 55 7.73828 54.7734 7.83984C54.5547 7.94141 54.3789 8.08203 54.2461 8.26172C54.1133 8.44141 54.0469 8.65234 54.0469 8.89453C54.0469 9.06641 54.0859 9.22266 54.1641 9.36328C54.25 9.49609 54.3789 9.62109 54.5508 9.73828C54.7227 9.84766 54.9414 9.94922 55.207 10.043C55.4727 10.1289 55.793 10.207 56.168 10.2773C57.0195 10.4336 57.8164 10.6562 58.5586 10.9453C59.3008 11.2344 59.9023 11.6445 60.3633 12.1758C60.832 12.707 61.0664 13.4219 61.0664 14.3203C61.0664 14.8828 60.9375 15.4023 60.6797 15.8789C60.4219 16.3477 60.0508 16.7617 59.5664 17.1211C59.082 17.4727 58.5 17.7461 57.8203 17.9414C57.1406 18.1367 56.375 18.2344 55.5234 18.2344C54.3125 18.2344 53.2891 18.0195 52.4531 17.5898C51.6172 17.1523 50.9844 16.6055 50.5547 15.9492C50.1328 15.2852 49.9219 14.6133 49.9219 13.9336H53.6016C53.6172 14.3242 53.7109 14.6445 53.8828 14.8945C54.0625 15.1445 54.3008 15.3281 54.5977 15.4453C54.8945 15.5625 55.2383 15.6211 55.6289 15.6211C55.9883 15.6211 56.2852 15.5703 56.5195 15.4688C56.7617 15.3672 56.9453 15.2305 57.0703 15.0586C57.1953 14.8789 57.2578 14.6719 57.2578 14.4375ZM65.1445 0.9375H68.4961L72.3047 12.8086L76.1133 0.9375H79.4648L73.6641 18H70.9453L65.1445 0.9375ZM63.1055 0.9375H66.5742L67.2188 14.0156V18H63.1055V0.9375ZM78.0352 0.9375H81.5156V18H77.3906V14.0156L78.0352 0.9375ZM83.4727 11.7891V11.543C83.4727 10.6133 83.6055 9.75781 83.8711 8.97656C84.1367 8.1875 84.5273 7.50391 85.043 6.92578C85.5586 6.34766 86.1953 5.89844 86.9531 5.57812C87.7109 5.25 88.5859 5.08594 89.5781 5.08594C90.5781 5.08594 91.457 5.25 92.2148 5.57812C92.9805 5.89844 93.6211 6.34766 94.1367 6.92578C94.6523 7.50391 95.043 8.1875 95.3086 8.97656C95.5742 9.75781 95.707 10.6133 95.707 11.543V11.7891C95.707 12.7109 95.5742 13.5664 95.3086 14.3555C95.043 15.1367 94.6523 15.8203 94.1367 16.4062C93.6211 16.9844 92.9844 17.4336 92.2266 17.7539C91.4688 18.0742 90.5938 18.2344 89.6016 18.2344C88.6094 18.2344 87.7305 18.0742 86.9648 17.7539C86.1992 17.4336 85.5586 16.9844 85.043 16.4062C84.5273 15.8203 84.1367 15.1367 83.8711 14.3555C83.6055 13.5664 83.4727 12.7109 83.4727 11.7891ZM87.4219 11.543V11.7891C87.4219 12.2656 87.457 12.7109 87.5273 13.125C87.5977 13.5391 87.7148 13.9023 87.8789 14.2148C88.043 14.5195 88.2656 14.7578 88.5469 14.9297C88.8281 15.1016 89.1797 15.1875 89.6016 15.1875C90.0156 15.1875 90.3594 15.1016 90.6328 14.9297C90.9141 14.7578 91.1367 14.5195 91.3008 14.2148C91.4648 13.9023 91.582 13.5391 91.6523 13.125C91.7227 12.7109 91.7578 12.2656 91.7578 11.7891V11.543C91.7578 11.082 91.7227 10.6484 91.6523 10.2422C91.582 9.82812 91.4648 9.46484 91.3008 9.15234C91.1367 8.83203 90.9141 8.58203 90.6328 8.40234C90.3516 8.22266 90 8.13281 89.5781 8.13281C89.1641 8.13281 88.8164 8.22266 88.5352 8.40234C88.2617 8.58203 88.043 8.83203 87.8789 9.15234C87.7148 9.46484 87.5977 9.82812 87.5273 10.2422C87.457 10.6484 87.4219 11.082 87.4219 11.543ZM101.344 8.02734V18H97.3945V5.32031H101.098L101.344 8.02734ZM100.875 11.2266L99.9492 11.25C99.9492 10.2812 100.066 9.41797 100.301 8.66016C100.535 7.89453 100.867 7.24609 101.297 6.71484C101.727 6.18359 102.238 5.78125 102.832 5.50781C103.434 5.22656 104.102 5.08594 104.836 5.08594C105.422 5.08594 105.957 5.17188 106.441 5.34375C106.934 5.51562 107.355 5.79297 107.707 6.17578C108.066 6.55859 108.34 7.06641 108.527 7.69922C108.723 8.32422 108.82 9.09766 108.82 10.0195V18H104.848V10.0078C104.848 9.5 104.777 9.11328 104.637 8.84766C104.496 8.57422 104.293 8.38672 104.027 8.28516C103.762 8.18359 103.438 8.13281 103.055 8.13281C102.648 8.13281 102.305 8.21094 102.023 8.36719C101.742 8.52344 101.516 8.74219 101.344 9.02344C101.18 9.29688 101.059 9.62109 100.98 9.99609C100.91 10.3711 100.875 10.7812 100.875 11.2266ZM115.184 5.32031V18H111.223V5.32031H115.184ZM110.988 2.05078C110.988 1.48828 111.191 1.02734 111.598 0.667969C112.004 0.308594 112.531 0.128906 113.18 0.128906C113.828 0.128906 114.355 0.308594 114.762 0.667969C115.168 1.02734 115.371 1.48828 115.371 2.05078C115.371 2.61328 115.168 3.07422 114.762 3.43359C114.355 3.79297 113.828 3.97266 113.18 3.97266C112.531 3.97266 112.004 3.79297 111.598 3.43359C111.191 3.07422 110.988 2.61328 110.988 2.05078ZM124.301 5.32031V8.0625H116.66V5.32031H124.301ZM118.266 2.16797H122.215V13.8633C122.215 14.1992 122.254 14.4609 122.332 14.6484C122.41 14.8281 122.543 14.957 122.73 15.0352C122.926 15.1055 123.184 15.1406 123.504 15.1406C123.73 15.1406 123.918 15.1367 124.066 15.1289C124.215 15.1133 124.355 15.0938 124.488 15.0703V17.8945C124.152 18.0039 123.801 18.0859 123.434 18.1406C123.066 18.2031 122.676 18.2344 122.262 18.2344C121.418 18.2344 120.695 18.1016 120.094 17.8359C119.5 17.5703 119.047 17.1523 118.734 16.582C118.422 16.0117 118.266 15.2695 118.266 14.3555V2.16797ZM125.027 11.7891V11.543C125.027 10.6133 125.16 9.75781 125.426 8.97656C125.691 8.1875 126.082 7.50391 126.598 6.92578C127.113 6.34766 127.75 5.89844 128.508 5.57812C129.266 5.25 130.141 5.08594 131.133 5.08594C132.133 5.08594 133.012 5.25 133.77 5.57812C134.535 5.89844 135.176 6.34766 135.691 6.92578C136.207 7.50391 136.598 8.1875 136.863 8.97656C137.129 9.75781 137.262 10.6133 137.262 11.543V11.7891C137.262 12.7109 137.129 13.5664 136.863 14.3555C136.598 15.1367 136.207 15.8203 135.691 16.4062C135.176 16.9844 134.539 17.4336 133.781 17.7539C133.023 18.0742 132.148 18.2344 131.156 18.2344C130.164 18.2344 129.285 18.0742 128.52 17.7539C127.754 17.4336 127.113 16.9844 126.598 16.4062C126.082 15.8203 125.691 15.1367 125.426 14.3555C125.16 13.5664 125.027 12.7109 125.027 11.7891ZM128.977 11.543V11.7891C128.977 12.2656 129.012 12.7109 129.082 13.125C129.152 13.5391 129.27 13.9023 129.434 14.2148C129.598 14.5195 129.82 14.7578 130.102 14.9297C130.383 15.1016 130.734 15.1875 131.156 15.1875C131.57 15.1875 131.914 15.1016 132.188 14.9297C132.469 14.7578 132.691 14.5195 132.855 14.2148C133.02 13.9023 133.137 13.5391 133.207 13.125C133.277 12.7109 133.312 12.2656 133.312 11.7891V11.543C133.312 11.082 133.277 10.6484 133.207 10.2422C133.137 9.82812 133.02 9.46484 132.855 9.15234C132.691 8.83203 132.469 8.58203 132.188 8.40234C131.906 8.22266 131.555 8.13281 131.133 8.13281C130.719 8.13281 130.371 8.22266 130.09 8.40234C129.816 8.58203 129.598 8.83203 129.434 9.15234C129.27 9.46484 129.152 9.82812 129.082 10.2422C129.012 10.6484 128.977 11.082 128.977 11.543ZM143.004 8.46094V18H139.055V5.32031H142.746L143.004 8.46094ZM146.754 5.22656L146.684 8.89453C146.527 8.87891 146.316 8.85938 146.051 8.83594C145.785 8.8125 145.562 8.80078 145.383 8.80078C144.922 8.80078 144.523 8.85547 144.188 8.96484C143.859 9.06641 143.586 9.22266 143.367 9.43359C143.156 9.63672 143 9.89453 142.898 10.207C142.805 10.5195 142.762 10.8828 142.77 11.2969L142.055 10.8281C142.055 9.97656 142.137 9.20312 142.301 8.50781C142.473 7.80469 142.715 7.19922 143.027 6.69141C143.34 6.17578 143.719 5.78125 144.164 5.50781C144.609 5.22656 145.109 5.08594 145.664 5.08594C145.859 5.08594 146.051 5.09766 146.238 5.12109C146.434 5.14453 146.605 5.17969 146.754 5.22656Z" fill="#1875F0"/>
</svg>
